HIERARCHY
ROOT Hips
{
	OFFSET 29.656601 21.460085 99.079399
	CHANNELS 6 Xposition Yposition Zposition Xrotation Yrotation Zrotation
	JOINT spine
	{
		OFFSET 0.000000 -0.477354 8.301041
		CHANNELS 3 Xrotation Yrotation Zrotation
		JOINT spine1
		{
			OFFSET 0.000000 -0.000002 10.456497
			CHANNELS 3 Xrotation Yrotation Zrotation
			JOINT spine2
			{
				OFFSET 0.000000 -0.000002 10.019203
				CHANNELS 3 Xrotation Yrotation Zrotation
				JOINT Neck
				{
					OFFSET 0.000000 -1.226414 25.723495
					CHANNELS 3 Xrotation Yrotation Zrotation
					JOINT Head
					{
						OFFSET 0.000000 -0.000002 7.771744
						CHANNELS 3 Xrotation Yrotation Zrotation
						End Site
						{
							OFFSET 0.000000 6.203938 18.811996
						}
					}
				}
				JOINT RightShoulder
				{
					OFFSET -4.218800 0.587437 10.820007
					CHANNELS 3 Xrotation Yrotation Zrotation
					JOINT RightArm
					{
						OFFSET 0.000000 -0.000002 14.191406
						CHANNELS 3 Xrotation Yrotation Zrotation
						JOINT RightArmRoll
						{
							OFFSET 0.000000 -0.000002 7.164078
							CHANNELS 3 Xrotation Yrotation Zrotation
							JOINT RightForeArm
							{
								OFFSET 0.000000 -0.000002 20.866501
								CHANNELS 3 Xrotation Yrotation Zrotation
								JOINT RightForeArmRoll
								{
									OFFSET 0.000000 -0.000002 8.039215
									CHANNELS 3 Xrotation Yrotation Zrotation
									JOINT RightHand
									{
										OFFSET 0.000000 -0.000004 16.132996
										CHANNELS 3 Xrotation Yrotation Zrotation
										End Site
										{
											OFFSET 0.000000 0.000000 0.100006
										}
									}
								}
							}
						}
					}
				}
				JOINT LeftShoulder
				{
					OFFSET 4.218800 0.587437 10.820007
					CHANNELS 3 Xrotation Yrotation Zrotation
					JOINT LeftArm
					{
						OFFSET 0.000000 -0.000002 14.191406
						CHANNELS 3 Xrotation Yrotation Zrotation
						JOINT LeftArmRoll
						{
							OFFSET 0.000000 -0.000002 7.164093
							CHANNELS 3 Xrotation Yrotation Zrotation
							JOINT LeftForeArm
							{
								OFFSET 0.000000 -0.000002 20.866501
								CHANNELS 3 Xrotation Yrotation Zrotation
								JOINT LeftForeArmRoll
								{
									OFFSET 0.000000 -0.000002 8.039215
									CHANNELS 3 Xrotation Yrotation Zrotation
									JOINT LeftHand
									{
										OFFSET 0.000000 -0.000004 16.132996
										CHANNELS 3 Xrotation Yrotation Zrotation
										End Site
										{
											OFFSET 0.000000 0.000000 0.100006
										}
									}
								}
							}
						}
					}
				}
			}
		}
	}
	JOINT RightUpLeg
	{
		OFFSET -7.357731 1.131821 -1.349213
		CHANNELS 3 Xrotation Yrotation Zrotation
		JOINT RightUpLegRoll
		{
			OFFSET 0.000000 -0.000004 18.916801
			CHANNELS 3 Xrotation Yrotation Zrotation
			JOINT RightLeg
			{
				OFFSET 0.000000 0.000004 -23.425598
				CHANNELS 3 Xrotation Yrotation Zrotation
				JOINT RightLegRoll
				{
					OFFSET 0.000000 -0.000004 23.502304
					CHANNELS 3 Xrotation Yrotation Zrotation
					JOINT RightFoot
					{
						OFFSET 0.000000 -0.000004 19.561707
						CHANNELS 3 Xrotation Yrotation Zrotation
						JOINT RightToeBase
						{
							OFFSET 0.000000 -0.000002 16.352600
							CHANNELS 3 Xrotation Yrotation Zrotation
							End Site
							{
								OFFSET 0.006931 0.912834 7.919434
							}
						}
					}
				}
			}
		}
	}
	JOINT LeftUpLeg
	{
		OFFSET 7.357731 1.131821 -1.349213
		CHANNELS 3 Xrotation Yrotation Zrotation
		JOINT LeftUpLegRoll
		{
			OFFSET 0.000000 -0.000004 18.916901
			CHANNELS 3 Xrotation Yrotation Zrotation
			JOINT LeftLeg
			{
				OFFSET 0.000000 -0.000004 23.425499
				CHANNELS 3 Xrotation Yrotation Zrotation
				JOINT LeftLegRoll
				{
					OFFSET 0.000000 -0.000004 23.719498
					CHANNELS 3 Xrotation Yrotation Zrotation
					JOINT LeftFoot
					{
						OFFSET 0.000000 -0.000004 19.344406
						CHANNELS 3 Xrotation Yrotation Zrotation
						JOINT LeftToeBase
						{
							OFFSET 0.000000 -0.000002 16.352600
							CHANNELS 3 Xrotation Yrotation Zrotation
							End Site
							{
								OFFSET -0.031063 0.912834 7.919434
							}
						}
					}
				}
			}
		}
	}
}
MOTION
Frames: 4
Frame Time: 0.041667
31.636299 15.222786 96.791992 1.262881 1.764954 7.621730 -0.179103 -0.453168 0.204062 3.646355 -0.904815 0.411084 5.291492 -0.899825 0.421897 8.180104 1.222459 -4.534691 -7.870074 -1.652634 -4.592160 -7.136318 -65.973528 -8.957124 -61.056263 -109.181933 -42.401961 -0.000002 -0.000001 0.000001 13.491765 -14.327217 1.453942 0.000001 0.000006 -3.000120 -5.000178 -7.999150 0.000114 3.895736 61.221608 -4.191680 -58.890103 107.644294 50.900274 0.000002 -0.000001 -0.000001 26.257986 12.081619 -2.060049 0.000003 -0.000005 3.007750 -5.000232 7.998871 -0.000129 -15.825082 -171.615333 6.088382 -179.999991 0.000006 -1.177001 143.005255 -5.519004 -3.304406 -0.000005 0.000001 0.584072 69.613302 6.804975 2.370188 38.592396 -6.679439 3.767477 -18.636477 164.479179 -6.570513 -0.000006 -0.000003 -1.328380 -37.356699 4.021267 2.491574 -0.000004 -0.000000 -0.754061 68.583446 -6.862690 -2.283646 30.604117 6.742610 -7.160176 
31.656097 15.308084 96.317390 1.328215 1.786353 7.643829 -0.170667 -0.458250 0.204647 3.663247 -0.914931 0.412356 5.308390 -0.909926 0.423287 8.140828 1.297874 -4.557122 -7.949626 -1.738916 -4.618092 -7.108319 -65.979655 -8.925687 -61.125221 -109.261334 -42.464799 -0.000001 -0.000002 0.000003 13.562877 -14.279801 1.452697 0.000001 0.000006 -3.000120 -5.000183 -7.999150 0.000114 3.926422 61.298120 -4.215589 -59.226025 107.728708 51.179837 0.000002 -0.000002 -0.000003 26.262713 12.035730 -2.042187 0.000005 -0.000004 3.007750 -5.000229 7.998871 -0.000129 -16.293039 -171.483770 6.231055 -179.999991 0.000005 -1.172001 142.014687 -5.541850 -3.379577 -0.000003 0.000001 0.610843 69.916371 6.789383 2.378926 39.366383 -6.600495 3.970029 -19.137633 164.347042 -6.641068 -0.000004 -0.000004 -1.322240 -38.253065 4.000118 2.518675 -0.000002 -0.000001 -0.797303 68.884288 -6.846917 -2.292023 30.889435 6.670265 -7.573136 
31.656498 15.352488 96.002396 1.395123 1.805888 7.662708 -0.162243 -0.463456 0.203910 3.680100 -0.925303 0.410982 5.325247 -0.920314 0.422039 8.116643 1.398594 -4.574515 -8.045451 -1.845250 -4.640329 -7.060644 -65.979552 -8.871404 -61.197716 -109.367400 -42.514420 -0.000002 -0.000002 0.000001 13.583312 -14.215218 1.443911 -0.000000 0.000006 -3.000110 -5.000182 -7.999151 0.000114 3.970425 61.402485 -4.250632 -59.628275 107.796388 51.512085 0.000001 -0.000001 -0.000002 26.263551 11.988888 -2.023158 0.000005 -0.000005 3.007750 -5.000229 7.998870 -0.000129 -16.761808 -171.353491 6.370494 -179.999991 0.000006 -1.165007 141.038939 -5.564025 -3.450155 -0.000007 0.000001 0.640231 70.280741 6.768716 2.392646 39.982677 -6.536063 4.124550 -19.646057 164.219522 -6.701754 -0.000002 -0.000004 -1.315253 -39.155941 3.969578 2.540424 -0.000003 -0.000000 -0.845581 69.238700 -6.826376 -2.305424 31.112519 6.610504 -7.898460 
31.659199 15.467387 95.594795 1.463532 1.823248 7.678027 -0.153830 -0.468780 0.201661 3.696924 -0.935923 0.406590 5.342075 -0.930985 0.417774 8.109689 1.527766 -4.586201 -8.159394 -1.974107 -4.658498 -6.990956 -65.972087 -8.791520 -61.273053 -109.503232 -42.548219 -0.000001 -0.000001 0.000002 13.547719 -14.131312 1.426940 0.000000 0.000006 -3.000110 -5.000181 -7.999150 0.000114 4.029584 61.537826 -4.298415 -60.105603 107.845176 51.904616 0.000002 -0.000001 -0.000003 26.260807 11.941048 -2.002965 0.000004 -0.000005 3.007751 -5.000229 7.998871 -0.000128 -17.229675 -171.226340 6.506538 -179.999991 0.000006 -1.157999 140.082945 -5.585918 -3.515710 -0.000004 0.000001 0.672463 70.712662 6.742600 2.412300 40.416876 -6.491318 4.224625 -20.161018 164.098532 -6.751662 -0.000003 -0.000005 -1.307372 -40.064141 3.928717 2.555738 -0.000005 -0.000000 -0.899337 69.651790 -6.800722 -2.324961 31.265136 6.567903 -8.122960 
